<?xml version="1.0" standalone="no"?>
<!DOCTYPE svg PUBLIC "-//W3C//DTD SVG 20010904//EN"
 "http://www.w3.org/TR/2001/REC-SVG-20010904/DTD/svg10.dtd">
<svg version="1.0" xmlns="http://www.w3.org/2000/svg"
 width="50px" height="39px" viewBox="0 0 281.000000 281.000000"
 preserveAspectRatio="xMidYMid meet">

<g transform="translate(0.000000,281.000000) scale(0.100000,-0.100000)"
fill="#000000" stroke="none">
<path d="M1378 2185 c-3 -3 -41 -12 -84 -19 -43 -8 -119 -26 -169 -39 -49 -14
-155 -35 -235 -47 -192 -28 -178 -23 -238 -76 -49 -43 -98 -120 -117 -184 -25
-89 -71 -183 -99 -205 -17 -14 -36 -30 -43 -35 -30 -24 -37 -345 -9 -448 22
-83 58 -159 93 -200 l28 -32 40 20 c92 47 137 27 319 -140 83 -77 119 -104
201 -150 109 -61 147 -79 199 -90 28 -6 96 -23 151 -36 71 -18 142 -26 245
-31 l145 -6 71 37 c39 20 75 36 80 37 5 0 34 17 64 37 40 28 64 54 90 99 19
34 74 104 121 155 162 174 217 315 204 517 -9 127 -18 153 -80 236 -88 115
-223 223 -385 308 -36 19 -99 52 -141 74 -42 22 -114 67 -161 101 -47 34 -95
62 -107 62 -29 0 -83 23 -100 43 -12 16 -71 24 -83 12z m186 -293 c7 -24 4
-62 -8 -134 -15 -84 -16 -102 -4 -109 7 -5 49 -9 93 -10 90 -1 186 -19 186
-34 0 -14 -97 -32 -212 -41 l-96 -6 -21 -117 c-35 -186 -42 -253 -49 -488 -4
-161 -9 -223 -18 -223 -20 0 -62 92 -75 165 -8 43 -11 125 -8 205 l4 135 -39
-42 c-134 -146 -328 -93 -329 89 -1 102 58 188 147 214 47 13 57 13 88 0 40
-16 64 -47 73 -93 5 -23 -1 -44 -21 -82 -31 -56 -71 -81 -129 -81 -29 0 -36
-4 -36 -20 0 -45 82 -51 140 -10 16 11 50 45 75 75 45 52 47 58 62 159 9 58
14 108 12 111 -3 2 -40 6 -82 8 -84 4 -98 10 -76 32 15 15 118 45 156 45 18 0
24 8 33 43 28 105 59 207 70 227 17 32 52 23 64 -18z m-788 -317 c12 -19 15
-41 12 -92 l-4 -66 25 34 c61 80 95 95 131 59 34 -34 34 -65 0 -241 -30 -160
-31 -171 -16 -194 19 -29 14 -45 -15 -45 -33 0 -60 20 -75 55 -18 44 -17 86 5
212 9 57 13 99 8 94 -5 -5 -28 -38 -51 -73 -44 -68 -71 -81 -101 -51 -15 15
-17 30 -12 115 3 54 3 98 1 98 -8 0 -50 -91 -103 -224 -58 -143 -77 -170 -108
-150 -38 24 -45 53 -39 184 6 140 25 243 49 267 19 19 66 20 78 2 5 -8 7 -26
5 -40 -3 -14 -8 -50 -12 -80 l-6 -54 26 49 c39 72 83 133 108 151 34 23 75 19
94 -10z m1328 -45 c51 -45 70 -103 64 -195 -9 -138 -78 -225 -186 -233 -52 -4
-61 -1 -91 24 -41 34 -61 79 -61 138 0 58 11 86 53 133 19 21 40 55 46 75 28
86 112 113 175 58z m-299 -45 c43 -42 30 -129 -20 -137 -15 -2 -21 3 -23 25
-2 15 -7 27 -13 27 -24 0 -109 -176 -109 -227 0 -13 -7 -39 -14 -58 -12 -27
-21 -35 -41 -35 -43 0 -48 28 -38 216 9 156 12 169 33 186 12 10 31 18 41 18
23 0 42 -35 36 -67 -5 -27 -4 -26 36 29 23 32 36 39 80 47 4 0 19 -10 32 -24z
m-160 -585 c30 -12 42 -36 28 -59 -8 -12 -7 -22 3 -36 18 -25 18 -31 -6 -55
-15 -15 -33 -20 -70 -20 l-50 0 0 90 0 90 34 0 c19 0 46 -4 61 -10z m165 -62
c0 -7 -14 -27 -32 -45 l-32 -33 32 0 c22 0 32 -5 32 -15 0 -12 -13 -15 -55
-15 -65 0 -72 16 -28 62 l27 28 -27 0 c-17 0 -27 5 -27 15 0 12 13 15 55 15
36 0 55 -4 55 -12z m120 -7 c5 -11 10 -38 10 -60 l0 -40 -57 2 c-51 2 -58 5
-61 24 -3 23 30 53 61 53 10 0 15 4 12 10 -3 5 -19 7 -35 3 -17 -3 -30 -1 -30
4 0 17 13 23 51 23 28 0 41 -5 49 -19z m120 4 c0 -8 -10 -15 -22 -17 -19 -2
-24 -10 -26 -45 -3 -35 -7 -43 -23 -43 -17 0 -19 7 -19 59 l0 59 45 0 c31 0
45 -4 45 -13z"/>
<path d="M1168 1403 c-14 -16 -31 -38 -37 -50 -10 -20 -9 -23 8 -23 30 0 81
48 81 76 0 32 -20 30 -52 -3z"/>
<path d="M2005 1440 c-12 -13 -17 -35 -17 -70 0 -55 -12 -72 -33 -44 -12 17
-14 15 -25 -26 -13 -50 -4 -97 23 -114 25 -16 67 11 95 61 59 107 24 267 -43
193z"/>
<path d="M1590 855 c0 -11 7 -15 23 -13 12 2 22 8 22 13 0 6 -10 11 -22 13
-16 2 -23 -2 -23 -13z"/>
<path d="M1590 779 c0 -15 5 -20 22 -17 34 5 37 38 4 38 -20 0 -26 -5 -26 -21z"/>
<path d="M1860 772 c0 -14 11 -21 26 -15 21 8 17 23 -6 23 -11 0 -20 -4 -20
-8z"/>
</g>
</svg>
