<?xml version="1.0" standalone="no"?>
<!DOCTYPE svg PUBLIC "-//W3C//DTD SVG 20010904//EN"
 "http://www.w3.org/TR/2001/REC-SVG-20010904/DTD/svg10.dtd">
<svg version="1.0" xmlns="http://www.w3.org/2000/svg"
 width="80pt" height="50pt" viewBox="0 0 200.000000 76.000000"
 preserveAspectRatio="xMidYMid meet">

<g transform="translate(0.000000,76.000000) scale(0.100000,-0.100000)"
fill="#000000" stroke="none">
<path d="M57 703 c-4 -3 -7 -75 -7 -160 l0 -153 40 0 39 0 3 78 3 77 28 -52
c38 -74 63 -73 102 5 l30 57 3 -82 3 -83 34 0 35 0 0 161 0 160 -36 -3 c-34
-3 -39 -8 -79 -82 l-43 -79 -41 82 c-39 77 -43 81 -74 81 -19 0 -37 -3 -40 -7z"/>
<path d="M430 550 l0 -160 115 0 115 0 0 35 0 35 -75 0 -75 0 0 30 0 30 60 0
60 0 0 30 0 30 -60 0 -60 0 0 30 0 30 70 0 70 0 0 35 0 35 -110 0 -110 0 0
-160z"/>
<path d="M677 703 c-4 -3 -7 -19 -7 -35 0 -27 2 -28 50 -28 l50 0 0 -125 0
-125 40 0 40 0 0 125 0 125 45 0 c45 0 45 0 45 35 l0 35 -128 0 c-71 0 -132
-3 -135 -7z"/>
<path d="M978 704 c-5 -4 -8 -76 -8 -161 l0 -153 40 0 40 0 0 50 c0 45 2 50
23 50 16 0 29 -13 50 -50 27 -48 30 -50 72 -50 l44 0 -33 56 -34 56 25 36 c31
47 26 94 -15 135 -27 26 -37 30 -113 34 -46 3 -87 2 -91 -3z m152 -78 c6 -8
10 -25 8 -38 -2 -19 -10 -23 -45 -26 l-43 -3 0 40 c0 40 1 41 34 41 18 0 39
-7 46 -14z"/>
<path d="M1355 695 c-100 -36 -136 -165 -68 -245 66 -79 170 -79 235 -1 40 47
46 110 16 169 -38 73 -109 103 -183 77z m78 -67 c33 -17 46 -39 47 -79 0 -51
-32 -89 -75 -89 -69 0 -103 103 -50 155 27 28 46 31 78 13z"/>
<path d="M817 363 c-4 -3 -7 -76 -7 -161 l0 -154 110 4 c97 3 112 5 132 25 27
28 29 84 4 112 -14 15 -15 24 -7 40 14 25 14 76 1 101 -5 10 -24 23 -41 29
-35 12 -181 15 -192 4z m161 -95 c-2 -19 -10 -24 -40 -26 -35 -3 -38 -1 -38
22 0 24 4 26 41 26 36 0 40 -2 37 -22z m16 -107 c15 -23 -7 -41 -50 -41 -40 0
-44 2 -44 25 0 23 4 25 44 25 25 0 47 -4 50 -9z"/>
<path d="M1100 330 l0 -39 69 -3 69 -3 -74 -90 c-51 -63 -74 -98 -74 -117 l0
-28 174 0 173 0 9 33 c9 29 13 32 56 35 45 3 47 2 59 -32 12 -33 16 -36 55
-36 l42 0 -61 160 -61 160 -32 0 -31 0 -59 -156 c-47 -124 -60 -150 -62 -126
l-3 31 -74 3 -74 3 75 92 c56 69 74 100 74 123 l0 30 -125 0 -125 0 0 -40z
m424 -127 c6 -20 4 -23 -18 -23 -30 0 -29 -2 -15 40 12 34 19 30 33 -17z"/>
<path d="M1680 210 l0 -160 40 0 40 0 0 50 c0 41 3 50 18 50 11 0 29 -19 47
-50 28 -48 31 -50 72 -50 24 0 43 2 43 5 0 3 -14 27 -31 55 l-31 50 21 26 c26
33 28 100 5 133 -24 34 -75 51 -154 51 l-70 0 0 -160z m155 45 c0 -27 -3 -30
-37 -33 -38 -3 -38 -3 -38 33 0 36 0 36 38 33 34 -3 37 -6 37 -33z"/>
</g>
</svg>
